<svg viewBox="0 0 271 168" fill="none" xmlns="http://www.w3.org/2000/svg">
<path d="M22.3802 44.1578C22.4225 44.3751 22.4013 44.5384 22.3165 44.6478C22.2393 44.7623 22.0825 44.8426 21.846 44.8887C21.6096 44.9348 21.4309 44.9198 21.31 44.8439C21.1967 44.7731 21.1189 44.6291 21.0766 44.4118L20.5985 41.9579L11.8279 43.6667L12.3433 46.3122C12.3856 46.5295 12.3644 46.6928 12.2795 46.8022C12.2024 46.9167 12.0456 46.997 11.8091 47.0431C11.5727 47.0892 11.394 47.0742 11.2731 46.9983C11.1598 46.9275 11.082 46.7835 11.0397 46.5662L9.7287 39.8372C9.68637 39.62 9.7038 39.4541 9.78098 39.3395C9.86579 39.2302 10.0264 39.1524 10.2629 39.1064C10.4993 39.0603 10.6742 39.0727 10.7874 39.1435C10.9084 39.2194 10.99 39.366 11.0323 39.5833L11.5477 42.2288L20.3184 40.5201L19.8403 38.0663C19.798 37.849 19.8154 37.6831 19.8926 37.5686C19.9774 37.4592 20.138 37.3814 20.3745 37.3354C20.6109 37.2893 20.7858 37.3017 20.8991 37.3725C21.02 37.4484 21.1016 37.595 21.1439 37.8123L22.3802 44.1578Z" fill="white" fill-opacity="0.65"/>
<path d="M25.1919 53.7284C25.2777 53.9811 25.2921 54.1756 25.2351 54.3118C25.1782 54.448 25.0418 54.5527 24.826 54.6258L22.0515 55.5667L23.3404 59.3677C23.4115 59.5774 23.4124 59.7421 23.343 59.8618C23.2819 59.9857 23.1372 60.0863 22.9091 60.1636C22.681 60.241 22.5019 60.2502 22.3719 60.1911C22.2502 60.1362 22.1537 60.0039 22.0827 59.7943L20.7937 55.9932L17.4273 57.1347C16.7244 57.3731 16.2504 57.6679 16.0051 58.0191C15.762 58.3766 15.7429 58.8574 15.9478 59.4616C16.0878 59.8747 16.3185 60.2812 16.6397 60.681C16.9608 61.0808 17.3323 61.4463 17.754 61.7777C17.8449 61.8431 17.9082 61.9282 17.9437 62.033C18.0148 62.2427 17.9336 62.4695 17.7002 62.7137C17.5671 62.8482 17.4419 62.9353 17.3248 62.975C17.1275 63.0419 16.9327 62.9946 16.7404 62.8329C16.2752 62.4545 15.8436 62.0027 15.4456 61.4777C15.0537 60.9507 14.771 60.4312 14.5975 59.9195C14.2421 58.8713 14.2531 58.0117 14.6305 57.3407C15.0161 56.6737 15.7515 56.1562 16.8367 55.7882L20.3233 54.6059L19.6867 52.7285C19.6156 52.5189 19.6106 52.3521 19.6717 52.2283C19.7411 52.1085 19.8899 52.01 20.118 51.9326C20.3461 51.8552 20.5211 51.844 20.6428 51.899C20.7728 51.958 20.8734 52.0924 20.9444 52.302L21.5811 54.1794L24.3556 53.2386C24.5714 53.1654 24.7433 53.1655 24.8713 53.239C24.9993 53.3124 25.1062 53.4756 25.1919 53.7284Z" fill="white" fill-opacity="0.65"/>
<path d="M28.4755 68.9448C28.6853 69.4073 28.7631 69.8939 28.7089 70.4046C28.6742 70.7063 28.5442 70.9083 28.3189 71.0105C28.2121 71.0589 28.0755 71.0887 27.909 71.0999C27.5146 71.1287 27.2676 71.0335 27.1681 70.8141C27.1278 70.7252 27.1138 70.6314 27.1263 70.5328C27.1546 70.1697 27.0934 69.8221 26.9428 69.4901C26.7007 68.9565 26.2705 68.5047 25.6522 68.1346C25.0399 67.7618 24.3461 67.5404 23.5708 67.4703C22.7982 67.4062 22.065 67.5315 21.3714 67.8462L19.6461 68.6289L21.0057 71.6259C21.0972 71.8275 21.1143 71.9913 21.0571 72.1173C21.0085 72.2466 20.8746 72.361 20.6552 72.4605C20.4358 72.5601 20.2585 72.5869 20.1233 72.541C19.9967 72.4983 19.8877 72.3762 19.7963 72.1746L17.198 66.4474C17.1065 66.2458 17.0851 66.0804 17.1337 65.9511C17.1909 65.8251 17.3292 65.7123 17.5485 65.6128C17.7679 65.5132 17.9409 65.4848 18.0675 65.5275C18.2027 65.5734 18.316 65.6971 18.4075 65.8987L19.0409 67.2949L24.8393 64.6644L24.3269 63.5349C24.2354 63.3333 24.214 63.1679 24.2626 63.0386C24.3198 62.9126 24.4581 62.7998 24.6774 62.7003C24.8968 62.6008 25.0698 62.5723 25.1964 62.615C25.3316 62.6609 25.4449 62.7846 25.5364 62.9862L26.3594 64.8004C26.4509 65.002 26.468 65.1658 26.4108 65.2919C26.3622 65.4211 26.2282 65.5355 26.0089 65.6351L24.2124 66.45C24.8633 66.4979 25.4758 66.6347 26.05 66.8603C26.6242 67.086 27.1216 67.3786 27.5421 67.7383C27.9627 68.098 28.2738 68.5002 28.4755 68.9448Z" fill="white" fill-opacity="0.65"/>
<path d="M34.4529 80.2843C34.5636 80.476 34.5967 80.6373 34.552 80.7683C34.5163 80.9018 34.3942 81.0287 34.1856 81.1492C33.977 81.2697 33.8032 81.3137 33.6641 81.2812C33.534 81.2512 33.4136 81.1403 33.3028 80.9486L33 80.4243L23.9159 81.059C22.9544 81.1257 22.1585 81.108 21.5282 81.006C20.8978 80.9039 20.357 80.6901 19.9057 80.3643C19.452 80.0475 19.0331 79.5827 18.6491 78.9699C18.5295 78.7759 18.4923 78.5943 18.5375 78.4254C18.5771 78.2596 18.7294 78.1002 18.9944 77.9472C19.3608 77.7355 19.6388 77.7742 19.8283 78.0632C20.1691 78.5881 20.5068 78.9645 20.8414 79.1923C21.1792 79.4257 21.6107 79.5674 22.1358 79.6174C22.6585 79.6764 23.4241 79.674 24.4324 79.6103L28.7162 73.0082L28.4084 72.4755C28.2977 72.2838 28.2602 72.1212 28.2959 71.9878C28.3405 71.8568 28.4671 71.7311 28.6757 71.6106C28.8843 71.4901 29.0537 71.4449 29.1838 71.475C29.3229 71.5074 29.4478 71.6195 29.5585 71.8112L31.2876 74.8047C31.3984 74.9963 31.4314 75.1577 31.3868 75.2887C31.3511 75.4221 31.2289 75.5491 31.0204 75.6696C30.8118 75.79 30.6379 75.8341 30.4989 75.8016C30.3687 75.7715 30.2483 75.6606 30.1376 75.469L29.5124 74.3866L26.1374 79.5164L32.2038 79.046L31.7691 78.2933C31.6583 78.1017 31.6208 77.9391 31.6566 77.8057C31.7012 77.6747 31.8278 77.5489 32.0364 77.4285C32.2449 77.308 32.4143 77.2628 32.5445 77.2928C32.6835 77.3253 32.8084 77.4374 32.9191 77.629L34.4529 80.2843Z" fill="white" fill-opacity="0.65"/>
<path d="M41.6997 85.7604C41.8636 85.971 41.941 86.15 41.9319 86.2974C41.9228 86.4447 41.8284 86.5883 41.6485 86.7282L39.3364 88.5274L41.8012 91.6951C41.9372 91.8698 41.992 92.0251 41.9658 92.161C41.9487 92.298 41.8451 92.4405 41.655 92.5884C41.4649 92.7364 41.2987 92.8038 41.1565 92.7907C41.0235 92.7787 40.889 92.6854 40.7531 92.5107L38.2882 89.343L35.4828 91.526C34.897 91.9818 34.546 92.4159 34.4296 92.8282C34.3172 93.2456 34.4569 93.7061 34.8487 94.2096C35.1166 94.5539 35.4678 94.8621 35.9024 95.1344C36.337 95.4067 36.8079 95.6301 37.315 95.8047C37.4223 95.8367 37.51 95.8963 37.5779 95.9837C37.7139 96.1584 37.7117 96.3993 37.5713 96.7066C37.4896 96.8773 37.4 97.0007 37.3024 97.0766C37.138 97.2046 36.9384 97.2237 36.7037 97.1341C36.1401 96.9293 35.5842 96.6442 35.0359 96.2789C34.4928 95.9096 34.0553 95.5117 33.7235 95.0852C33.0438 94.2117 32.7721 93.3961 32.9084 92.6384C33.0538 91.8818 33.5787 91.1516 34.483 90.4479L37.3886 88.187L36.1712 86.6224C36.0352 86.4477 35.9758 86.2918 35.9929 86.1548C36.0191 86.0189 36.1273 85.877 36.3174 85.729C36.5075 85.5811 36.6691 85.5131 36.8022 85.5251C36.9443 85.5382 37.0834 85.6321 37.2193 85.8068L38.4368 87.3713L40.7489 85.5722C40.9288 85.4322 41.0912 85.3759 41.2362 85.4033C41.3813 85.4307 41.5358 85.5497 41.6997 85.7604Z" fill="white" fill-opacity="0.65"/>
<path d="M47.7672 96.9239C48.3819 97.5702 48.7898 98.2919 48.9909 99.089C49.192 99.886 49.1698 100.68 48.9244 101.47C48.6882 102.261 48.2422 102.968 47.5865 103.592C46.9308 104.216 46.1998 104.628 45.3935 104.829C44.5964 105.03 43.8049 105.01 43.0188 104.769C42.2328 104.529 41.5324 104.085 40.9177 103.439C40.303 102.793 39.8951 102.071 39.694 101.274C39.4929 100.477 39.5105 99.6829 39.7467 98.8922C39.9921 98.1016 40.4427 97.3945 41.0984 96.7709C41.7541 96.1472 42.4805 95.7348 43.2776 95.5337C44.0839 95.3328 44.88 95.3527 45.6661 95.5935C46.4521 95.8342 47.1525 96.2776 47.7672 96.9239ZM46.72 97.92C46.2847 97.4624 45.7997 97.1556 45.2648 96.9994C44.7391 96.8435 44.2049 96.844 43.6622 97.0008C43.1242 97.1531 42.6241 97.4491 42.1618 97.8889C41.6995 98.3286 41.3765 98.8155 41.1927 99.3497C41.0137 99.8794 40.9865 100.413 41.1112 100.95C41.2451 101.488 41.5297 101.985 41.9649 102.443C42.4002 102.9 42.8806 103.207 43.4063 103.363C43.9412 103.519 44.4776 103.521 45.0156 103.369C45.5583 103.212 46.0608 102.914 46.5231 102.474C46.9854 102.034 47.3061 101.55 47.4851 101.02C47.6689 100.486 47.6938 99.9499 47.5599 99.4123C47.4352 98.875 47.1552 98.3776 46.72 97.92Z" fill="white" fill-opacity="0.65"/>
<path d="M61.0173 108.936C61.4124 109.255 61.7004 109.655 61.8812 110.136C61.9857 110.421 61.9602 110.66 61.8048 110.852C61.7311 110.943 61.6225 111.031 61.4787 111.116C61.1392 111.319 60.8757 111.345 60.6883 111.193C60.6123 111.132 60.5578 111.054 60.5247 110.961C60.3869 110.624 60.1762 110.34 59.8925 110.111C59.4366 109.743 58.8494 109.533 58.1308 109.48C57.4163 109.421 56.6969 109.535 55.9727 109.821C55.2535 110.11 54.6547 110.551 54.1762 111.144L52.986 112.618L55.5465 114.685C55.7187 114.825 55.8076 114.963 55.8131 115.102C55.8277 115.239 55.7593 115.401 55.608 115.589C55.4567 115.776 55.3103 115.88 55.1689 115.899C55.0366 115.918 54.8844 115.858 54.7122 115.719L49.819 111.768C49.6468 111.629 49.5534 111.491 49.5388 111.353C49.5333 111.215 49.6062 111.052 49.7575 110.865C49.9089 110.677 50.0507 110.574 50.1829 110.556C50.3243 110.536 50.4812 110.595 50.6534 110.735L51.8463 111.698L55.8463 106.744L54.8813 105.965C54.7091 105.826 54.6157 105.687 54.601 105.55C54.5956 105.412 54.6685 105.249 54.8198 105.062C54.9712 104.874 55.113 104.771 55.2452 104.752C55.3866 104.733 55.5435 104.792 55.7157 104.931L57.2657 106.183C57.4379 106.322 57.5267 106.461 57.5322 106.599C57.5469 106.736 57.4785 106.899 57.3272 107.086L56.0879 108.621C56.691 108.371 57.2997 108.219 57.9141 108.162C58.5284 108.106 59.1043 108.144 59.6415 108.277C60.1788 108.41 60.6374 108.629 61.0173 108.936Z" fill="white" fill-opacity="0.65"/>
<path d="M67.657 113.62C68.446 114.138 69.0126 114.74 69.3568 115.426C69.71 116.109 69.8503 116.832 69.7779 117.595C69.7091 118.352 69.4552 119.112 69.0162 119.875C68.8947 120.06 68.7681 120.164 68.6364 120.187C68.5102 120.213 68.3546 120.165 68.1696 120.044L62.26 116.162C61.7655 116.998 61.6011 117.77 61.7666 118.479C61.9412 119.185 62.4339 119.805 63.2447 120.337C63.7453 120.666 64.2816 120.929 64.8536 121.125C65.4291 121.317 65.9716 121.427 66.481 121.458C66.6057 121.47 66.7061 121.501 66.7823 121.551C66.9727 121.676 67.0331 121.922 66.9634 122.289C66.9373 122.436 66.8939 122.555 66.8331 122.648C66.6902 122.865 66.4597 122.955 66.1416 122.918C65.5832 122.855 64.9754 122.701 64.3183 122.456C63.6611 122.212 63.0442 121.9 62.4673 121.521C61.6457 120.981 61.0473 120.362 60.6724 119.664C60.2974 118.966 60.1524 118.221 60.2372 117.427C60.3221 116.634 60.6326 115.829 61.1687 115.013C61.6798 114.235 62.2979 113.656 63.023 113.275C63.748 112.895 64.5117 112.734 65.3138 112.793C66.1195 112.848 66.9006 113.123 67.657 113.62ZM66.8796 114.803C66.2103 114.364 65.5426 114.171 64.8767 114.224C64.2198 114.275 63.6249 114.558 63.0922 115.073L68.0794 118.349C68.3762 117.648 68.425 116.998 68.2259 116.4C68.0358 115.8 67.587 115.268 66.8796 114.803Z" fill="white" fill-opacity="0.65"/>
<path d="M79.7917 120.606C80.0282 120.73 80.1727 120.861 80.2254 120.999C80.2781 121.137 80.2515 121.307 80.1458 121.509L79.2844 123.152C79.1786 123.354 79.054 123.472 78.9106 123.507C78.7673 123.543 78.5774 123.498 78.341 123.374C78.1449 123.271 78.0458 123.124 78.0437 122.932C78.0436 122.329 77.8569 121.808 77.4839 121.37C77.1138 120.926 76.5655 120.514 75.8389 120.133C75.2796 119.84 74.7884 119.711 74.3655 119.747C73.9514 119.78 73.6506 119.975 73.4632 120.332C73.3665 120.517 73.3456 120.697 73.4004 120.873C73.4611 121.052 73.5871 121.239 73.7785 121.435C73.9355 121.598 74.1289 121.762 74.3587 121.926C74.5943 122.094 74.9005 122.302 75.2772 122.551C75.8033 122.908 76.2213 123.204 76.5313 123.44C76.8501 123.673 77.1336 123.925 77.3817 124.195C77.7554 124.604 77.986 125.033 78.0734 125.483C78.1667 125.936 78.0773 126.422 77.8053 126.941C77.5333 127.46 77.1619 127.846 76.6911 128.1C76.2291 128.35 75.6885 128.449 75.0692 128.396C74.4557 128.346 73.7972 128.137 73.0937 127.769C72.471 127.442 71.9685 127.069 71.5863 126.648C71.2042 126.227 70.9294 125.748 70.762 125.212L70.5081 125.697C70.4024 125.898 70.2778 126.017 70.1344 126.052C69.9911 126.087 69.8012 126.043 69.5647 125.919C69.3283 125.795 69.1838 125.664 69.1311 125.526C69.0784 125.388 69.1049 125.218 69.2107 125.017L70.2988 122.941C70.4046 122.739 70.5292 122.62 70.6725 122.585C70.8159 122.55 71.0058 122.595 71.2422 122.719C71.3633 122.782 71.4433 122.861 71.4823 122.955C71.5243 123.043 71.538 123.164 71.5234 123.318C71.4408 123.98 71.5752 124.565 71.9266 125.073C72.278 125.581 72.8573 126.046 73.6646 126.469C74.3335 126.82 74.9102 126.968 75.3946 126.913C75.8791 126.858 76.2271 126.629 76.4387 126.225C76.5414 126.029 76.5626 125.834 76.5023 125.641C76.4419 125.448 76.3147 125.249 76.1206 125.044C75.952 124.875 75.7457 124.7 75.5016 124.521C75.2663 124.339 74.9574 124.122 74.5749 123.87C74.0631 123.528 73.6422 123.23 73.3121 122.977C72.9821 122.723 72.696 122.455 72.4539 122.174C72.1206 121.786 71.9128 121.383 71.8305 120.965C71.757 120.544 71.8457 120.095 72.0966 119.616C72.3596 119.114 72.7145 118.753 73.1613 118.531C73.617 118.307 74.1239 118.224 74.6819 118.281C75.2457 118.341 75.8216 118.525 76.4098 118.834C76.9691 119.127 77.4356 119.478 77.8093 119.887C78.1887 120.299 78.467 120.743 78.6443 121.218L78.8483 120.829C78.9541 120.627 79.0787 120.508 79.2221 120.473C79.3654 120.438 79.5553 120.482 79.7917 120.606Z" fill="white" fill-opacity="0.65"/>
<path d="M87.5535 124.024C88.3021 124.326 88.9002 124.775 89.348 125.37C89.7982 125.959 90.0583 126.654 90.1282 127.455C90.2005 128.249 90.0563 129.093 89.6955 129.987C89.3347 130.88 88.8512 131.59 88.245 132.118C87.6412 132.639 86.9716 132.959 86.2362 133.076C85.5032 133.187 84.7624 133.092 84.0138 132.79C82.8789 132.331 82.1232 131.447 81.7467 130.136L80.3023 133.713L81.8598 134.342C82.065 134.425 82.1916 134.529 82.2396 134.653C82.2911 134.787 82.2718 134.965 82.1816 135.188C82.0914 135.412 81.9828 135.55 81.8556 135.604C81.7321 135.667 81.5677 135.656 81.3625 135.574L77.5231 134.023C77.3178 133.94 77.1894 133.832 77.1379 133.699C77.0899 133.574 77.1111 133.4 77.2013 133.177C77.2915 132.954 77.3983 132.811 77.5218 132.748C77.649 132.694 77.8151 132.709 78.0204 132.792L78.944 133.165L82.747 123.747L82.0045 123.447C81.7992 123.364 81.6696 123.259 81.6156 123.132C81.5701 123.002 81.5924 122.825 81.6826 122.601C81.7728 122.378 81.8785 122.238 81.9996 122.182C82.1291 122.122 82.2965 122.133 82.5018 122.216L83.9415 122.797C84.1468 122.88 84.2722 122.987 84.3177 123.118C84.3717 123.245 84.3536 123.42 84.2634 123.643L83.9708 124.368C84.551 124.026 85.1453 123.824 85.7536 123.761C86.3619 123.697 86.9619 123.785 87.5535 124.024ZM86.9218 125.328C86.3845 125.111 85.8558 125.038 85.3357 125.109C84.8217 125.182 84.3513 125.399 83.9245 125.76C83.5038 126.124 83.1667 126.62 82.9132 127.248C82.6596 127.876 82.558 128.466 82.6081 129.02C82.6643 129.577 82.8519 130.06 83.171 130.469C83.496 130.881 83.9272 131.196 84.4645 131.413C85.0017 131.63 85.5147 131.69 86.0035 131.592C86.4947 131.488 86.9325 131.247 87.317 130.869C87.7075 130.493 88.0234 130.006 88.2648 129.409C88.5061 128.811 88.6168 128.241 88.5968 127.7C88.5829 127.161 88.4339 126.686 88.15 126.277C87.8684 125.861 87.459 125.545 86.9218 125.328Z" fill="white" fill-opacity="0.65"/>
<path d="M97.4438 127.456C98.3 127.706 99.0154 128.125 99.5898 128.713C100.164 129.301 100.544 129.998 100.729 130.805C100.922 131.607 100.892 132.443 100.639 133.312C100.385 134.18 99.9605 134.904 99.3643 135.483C98.7763 136.057 98.082 136.438 97.2814 136.625C96.4809 136.812 95.6525 136.78 94.7963 136.531C93.9401 136.281 93.2247 135.862 92.6503 135.274C92.0759 134.686 91.6921 133.991 91.4989 133.188C91.3138 132.381 91.348 131.544 91.6014 130.675C91.8548 129.806 92.2756 129.085 92.8637 128.51C93.4598 127.931 94.1581 127.548 94.9587 127.362C95.7592 127.175 96.5876 127.206 97.4438 127.456ZM97.039 128.843C96.4328 128.666 95.8592 128.645 95.3183 128.779C94.7855 128.908 94.3239 129.177 93.9335 129.585C93.5449 129.987 93.2613 130.495 93.0826 131.107C92.9039 131.72 92.8694 132.303 92.979 132.857C93.0904 133.405 93.335 133.88 93.7129 134.282C94.0988 134.679 94.5948 134.966 95.2011 135.143C95.8073 135.32 96.3769 135.344 96.9097 135.214C97.4506 135.081 97.9153 134.813 98.3039 134.411C98.6943 134.002 98.9788 133.492 99.1575 132.879C99.3362 132.267 99.3698 131.687 99.2584 131.139C99.1488 130.585 98.901 130.109 98.5151 129.711C98.1373 129.31 97.6453 129.02 97.039 128.843Z" fill="white" fill-opacity="0.65"/>
<path d="M109.216 130.24C109.799 130.347 110.281 130.569 110.662 130.904C111.045 131.233 111.308 131.656 111.451 132.172C111.594 132.689 111.607 133.264 111.489 133.898L110.63 138.545L111.418 138.691C111.635 138.731 111.78 138.811 111.85 138.93C111.928 139.044 111.946 139.219 111.902 139.456C111.858 139.693 111.779 139.853 111.664 139.938C111.556 140.018 111.394 140.037 111.176 139.997L108.065 139.422C107.847 139.382 107.699 139.305 107.621 139.191C107.55 139.072 107.537 138.894 107.581 138.657C107.624 138.42 107.7 138.262 107.807 138.182C107.922 138.098 108.089 138.076 108.306 138.116L109.19 138.279L110.022 133.775C110.128 133.206 110.08 132.73 109.879 132.349C109.678 131.967 109.321 131.729 108.809 131.634C108.265 131.534 107.727 131.597 107.195 131.823C106.67 132.05 106.216 132.413 105.832 132.911C105.449 133.41 105.194 133.998 105.069 134.677L104.561 137.424L105.445 137.587C105.662 137.627 105.806 137.707 105.877 137.826C105.955 137.939 105.973 138.115 105.929 138.352C105.885 138.589 105.806 138.749 105.691 138.834C105.583 138.913 105.421 138.933 105.203 138.893L102.092 138.318C101.874 138.277 101.726 138.2 101.648 138.087C101.577 137.968 101.564 137.79 101.608 137.553C101.651 137.316 101.727 137.158 101.834 137.078C101.949 136.994 102.116 136.971 102.333 137.012L103.121 137.157L104.278 130.896L103.299 130.715C103.081 130.675 102.933 130.598 102.855 130.484C102.784 130.365 102.771 130.187 102.814 129.95C102.858 129.713 102.934 129.555 103.041 129.476C103.156 129.391 103.322 129.369 103.54 129.409L105.259 129.727C105.477 129.767 105.621 129.847 105.691 129.966C105.77 130.079 105.787 130.255 105.743 130.492L105.53 131.644C106.073 131.069 106.659 130.661 107.286 130.419C107.92 130.179 108.563 130.119 109.216 130.24Z" fill="white" fill-opacity="0.65"/>
<path d="M122.709 128.271C122.93 128.29 123.081 128.355 123.163 128.466C123.252 128.572 123.287 128.745 123.267 128.985L122.355 139.767L123.153 139.834C123.374 139.853 123.525 139.918 123.607 140.029C123.696 140.135 123.73 140.308 123.71 140.548C123.69 140.788 123.627 140.956 123.521 141.051C123.422 141.141 123.262 141.176 123.041 141.158L121.494 141.027C121.273 141.008 121.119 140.946 121.029 140.841C120.947 140.729 120.917 140.553 120.937 140.313L121.003 139.535C120.549 140.032 120.041 140.401 119.478 140.641C118.916 140.881 118.317 140.974 117.681 140.92C116.876 140.852 116.172 140.603 115.568 140.173C114.965 139.737 114.511 139.149 114.208 138.412C113.905 137.667 113.794 136.815 113.875 135.855C113.956 134.895 114.208 134.077 114.632 133.4C115.055 132.717 115.601 132.215 116.268 131.892C116.936 131.563 117.673 131.433 118.477 131.501C119.697 131.604 120.68 132.226 121.426 133.367L121.751 129.523L120.175 129.39C119.954 129.371 119.799 129.309 119.71 129.204C119.628 129.092 119.597 128.916 119.617 128.676C119.638 128.436 119.697 128.272 119.796 128.182C119.903 128.086 120.066 128.048 120.286 128.066L122.709 128.271ZM118.453 132.949C117.875 132.9 117.367 132.998 116.928 133.241C116.49 133.479 116.14 133.835 115.878 134.309C115.622 134.784 115.467 135.343 115.413 135.985C115.358 136.627 115.417 137.204 115.59 137.715C115.769 138.227 116.054 138.639 116.446 138.954C116.838 139.261 117.322 139.439 117.9 139.488C118.477 139.537 119.001 139.45 119.47 139.229C119.946 139.008 120.332 138.661 120.626 138.19C120.928 137.719 121.107 137.146 121.164 136.471C121.221 135.796 121.14 135.202 120.922 134.687C120.711 134.172 120.389 133.766 119.957 133.468C119.532 133.171 119.03 132.998 118.453 132.949Z" fill="white" fill-opacity="0.65"/>
<path d="M134.354 132.047C134.575 132.036 134.734 132.08 134.83 132.18C134.932 132.272 134.989 132.439 135.001 132.679L135.351 139.702L138.482 139.546C138.703 139.535 138.861 139.58 138.957 139.679C139.06 139.772 139.117 139.938 139.129 140.179C139.141 140.42 139.101 140.594 139.008 140.703C138.922 140.805 138.769 140.862 138.548 140.873L130.901 141.253C130.68 141.264 130.518 141.223 130.416 141.131C130.319 141.031 130.265 140.861 130.253 140.62C130.241 140.38 130.278 140.209 130.365 140.107C130.457 139.998 130.614 139.938 130.835 139.927L133.888 139.775L133.571 133.415L131.104 133.538C130.883 133.549 130.721 133.508 130.618 133.416C130.522 133.316 130.468 133.146 130.456 132.906C130.444 132.665 130.481 132.494 130.567 132.392C130.66 132.283 130.817 132.223 131.038 132.212L134.354 132.047ZM133.829 127.78C134.186 127.763 134.433 127.799 134.568 127.89C134.702 127.975 134.775 128.134 134.787 128.368L134.85 129.636C134.862 129.87 134.805 130.039 134.68 130.143C134.554 130.241 134.313 130.299 133.955 130.316C133.597 130.334 133.351 130.301 133.217 130.216C133.082 130.125 133.008 129.963 132.997 129.729L132.934 128.461C132.922 128.226 132.979 128.061 133.104 127.963C133.23 127.859 133.471 127.798 133.829 127.78Z" fill="white" fill-opacity="0.65"/>
<path d="M146.468 130.567C147.054 130.478 147.582 130.53 148.052 130.722C148.521 130.908 148.908 131.222 149.212 131.663C149.515 132.104 149.715 132.644 149.812 133.281L150.518 137.955L151.31 137.835C151.529 137.802 151.691 137.83 151.796 137.919C151.908 138.001 151.981 138.161 152.017 138.4C152.053 138.638 152.031 138.816 151.95 138.933C151.874 139.043 151.727 139.115 151.508 139.148L148.38 139.621C148.161 139.654 147.996 139.629 147.885 139.548C147.779 139.458 147.708 139.294 147.672 139.056C147.636 138.818 147.656 138.644 147.731 138.534C147.812 138.416 147.962 138.341 148.181 138.308L149.069 138.173L148.385 133.645C148.299 133.072 148.098 132.638 147.784 132.343C147.469 132.048 147.054 131.94 146.539 132.018C145.992 132.1 145.504 132.335 145.076 132.723C144.653 133.109 144.342 133.6 144.143 134.197C143.943 134.793 143.895 135.433 143.998 136.115L144.415 138.877L145.304 138.742C145.522 138.709 145.685 138.738 145.79 138.827C145.902 138.909 145.975 139.069 146.011 139.307C146.047 139.545 146.025 139.723 145.944 139.841C145.868 139.951 145.721 140.023 145.502 140.056L142.373 140.528C142.155 140.561 141.99 140.537 141.878 140.455C141.773 140.366 141.702 140.202 141.666 139.964C141.63 139.726 141.65 139.551 141.725 139.441C141.806 139.324 141.956 139.248 142.175 139.215L142.967 139.096L142.016 132.8L141.031 132.949C140.812 132.982 140.647 132.957 140.536 132.875C140.43 132.786 140.359 132.622 140.323 132.384C140.287 132.146 140.307 131.972 140.382 131.861C140.463 131.744 140.613 131.668 140.832 131.635L142.561 131.374C142.78 131.341 142.942 131.369 143.047 131.459C143.159 131.541 143.232 131.701 143.268 131.939L143.443 133.098C143.769 132.377 144.189 131.8 144.703 131.367C145.223 130.932 145.812 130.666 146.468 130.567Z" fill="white" fill-opacity="0.65"/>
<path d="M158.966 125.169C159.691 124.957 160.364 124.902 160.984 125.005C161.609 125.101 162.144 125.351 162.588 125.757C163.032 126.163 163.354 126.706 163.554 127.387C163.74 128.025 163.753 128.659 163.592 129.289C163.435 129.912 163.122 130.661 162.652 131.538L160.439 135.656L164.506 134.465L164.161 133.284C164.097 133.066 164.104 132.894 164.183 132.769C164.262 132.644 164.429 132.544 164.685 132.469C164.941 132.394 165.136 132.388 165.27 132.451C165.404 132.513 165.503 132.654 165.567 132.873L166.099 134.691C166.167 134.922 166.168 135.101 166.104 135.229C166.044 135.348 165.907 135.439 165.695 135.501L159.191 137.405C158.978 137.467 158.811 137.465 158.69 137.399C158.573 137.325 158.481 137.172 158.414 136.941C158.344 136.703 158.342 136.521 158.406 136.394L161.306 131.006C161.709 130.251 161.969 129.645 162.087 129.19C162.209 128.727 162.205 128.271 162.073 127.821C161.903 127.24 161.581 126.835 161.107 126.608C160.638 126.372 160.063 126.354 159.382 126.553C158.694 126.754 158.099 127.119 157.595 127.646L157.897 128.677C157.961 128.895 157.954 129.067 157.875 129.192C157.796 129.317 157.629 129.417 157.373 129.492C157.116 129.567 156.922 129.573 156.788 129.51C156.654 129.448 156.555 129.307 156.491 129.088L156.088 127.711C156.017 127.467 156.038 127.274 156.153 127.132C156.512 126.667 156.93 126.267 157.409 125.93C157.885 125.587 158.404 125.333 158.966 125.169Z" fill="white" fill-opacity="0.65"/>
<path d="M170.67 121.088C171.195 120.876 171.553 121.005 171.743 121.476L174.067 127.225L175.534 126.632C175.739 126.549 175.904 126.539 176.027 126.602C176.154 126.655 176.263 126.794 176.353 127.017C176.444 127.241 176.463 127.419 176.411 127.552C176.364 127.677 176.237 127.781 176.032 127.864L174.565 128.457L175.385 130.485L176.58 130.002C176.785 129.919 176.95 129.908 177.073 129.971C177.2 130.025 177.309 130.163 177.399 130.387C177.49 130.61 177.509 130.788 177.457 130.921C177.41 131.046 177.283 131.15 177.078 131.233L173.185 132.807C172.979 132.89 172.813 132.904 172.686 132.85C172.563 132.788 172.456 132.645 172.365 132.422C172.275 132.198 172.254 132.024 172.302 131.899C172.353 131.766 172.482 131.658 172.687 131.575L174.027 131.034L173.207 129.006L168.879 130.755C168.674 130.838 168.508 130.852 168.381 130.798C168.257 130.736 168.15 130.593 168.06 130.37C167.979 130.171 167.952 130.017 167.979 129.908L169.897 122.043C169.955 121.802 170.04 121.606 170.155 121.455C170.269 121.303 170.441 121.181 170.67 121.088ZM169.613 129.026L172.709 127.774L170.966 123.254L169.613 129.026Z" fill="white" fill-opacity="0.65"/>
<path d="M181.281 116.01C181.512 115.878 181.7 115.826 181.845 115.856C181.989 115.886 182.118 115.999 182.232 116.197L183.688 118.74L187.171 116.745C187.363 116.635 187.524 116.603 187.655 116.648C187.788 116.684 187.915 116.807 188.034 117.016C188.154 117.225 188.197 117.399 188.164 117.537C188.134 117.668 188.023 117.788 187.831 117.898L184.348 119.892L186.114 122.977C186.483 123.621 186.863 124.03 187.255 124.203C187.652 124.373 188.128 124.299 188.682 123.982C189.06 123.765 189.415 123.461 189.745 123.069C190.076 122.677 190.364 122.242 190.608 121.765C190.655 121.663 190.726 121.585 190.822 121.53C191.014 121.42 191.252 121.456 191.537 121.638C191.694 121.743 191.804 121.849 191.865 121.956C191.969 122.137 191.96 122.338 191.838 122.557C191.556 123.086 191.195 123.597 190.757 124.088C190.315 124.574 189.859 124.951 189.39 125.219C188.43 125.769 187.584 125.924 186.853 125.682C186.124 125.432 185.475 124.809 184.906 123.815L183.076 120.62L181.356 121.605C181.164 121.715 181.001 121.752 180.868 121.716C180.737 121.671 180.612 121.544 180.492 121.335C180.372 121.126 180.328 120.956 180.358 120.826C180.391 120.687 180.504 120.563 180.696 120.453L182.416 119.468L180.96 116.925C180.847 116.727 180.814 116.559 180.862 116.419C180.909 116.279 181.049 116.143 181.281 116.01Z" fill="white" fill-opacity="0.65"/>
<path d="M193.134 111.605C193.861 111.089 194.634 110.788 195.452 110.703C196.269 110.618 197.052 110.753 197.799 111.109C198.548 111.456 199.184 111.999 199.708 112.737C200.231 113.475 200.535 114.257 200.618 115.084C200.703 115.902 200.571 116.682 200.22 117.426C199.869 118.169 199.33 118.799 198.603 119.315C197.875 119.831 197.103 120.132 196.285 120.217C195.467 120.302 194.684 120.171 193.935 119.824C193.188 119.468 192.553 118.921 192.029 118.183C191.506 117.445 191.201 116.667 191.116 115.849C191.033 115.023 191.166 114.237 191.517 113.494C191.867 112.75 192.406 112.121 193.134 111.605ZM193.97 112.783C193.455 113.149 193.082 113.585 192.851 114.092C192.621 114.59 192.546 115.119 192.623 115.678C192.697 116.233 192.918 116.77 193.288 117.29C193.657 117.811 194.092 118.2 194.595 118.458C195.094 118.711 195.618 118.814 196.167 118.768C196.718 118.712 197.252 118.502 197.767 118.136C198.282 117.771 198.654 117.339 198.884 116.841C199.115 116.334 199.193 115.804 199.119 115.249C199.042 114.69 198.818 114.15 198.449 113.629C198.08 113.109 197.646 112.722 197.148 112.469C196.645 112.211 196.118 112.11 195.567 112.166C195.018 112.212 194.485 112.418 193.97 112.783Z" fill="white" fill-opacity="0.65"/>
<path d="M203.975 99.3701C204.389 98.9828 204.769 98.9743 205.116 99.3448L209.357 103.869L210.511 102.787C210.673 102.636 210.822 102.567 210.96 102.581C211.098 102.585 211.25 102.675 211.414 102.851C211.579 103.027 211.661 103.186 211.661 103.329C211.662 103.462 211.581 103.605 211.42 103.756L210.265 104.838L211.761 106.434L212.702 105.553C212.863 105.401 213.013 105.332 213.151 105.346C213.289 105.351 213.44 105.441 213.605 105.616C213.77 105.792 213.852 105.951 213.852 106.094C213.852 106.228 213.772 106.37 213.61 106.522L210.546 109.393C210.385 109.545 210.235 109.618 210.097 109.614C209.959 109.6 209.808 109.505 209.643 109.33C209.479 109.154 209.396 108.999 209.396 108.866C209.396 108.723 209.477 108.576 209.638 108.424L210.693 107.436L209.197 105.84L205.791 109.032C205.629 109.184 205.48 109.257 205.342 109.253C205.204 109.239 205.053 109.144 204.888 108.969C204.741 108.812 204.66 108.678 204.645 108.567L203.599 100.539C203.566 100.294 203.575 100.08 203.627 99.8977C203.679 99.7152 203.795 99.5393 203.975 99.3701ZM205.852 107.155L208.288 104.871L205.033 101.284L205.852 107.155Z" fill="white" fill-opacity="0.65"/>
<path d="M210.483 92.5964C210.929 92.0871 211.44 91.721 212.016 91.4984C212.591 91.2665 213.168 91.196 213.746 91.2869C214.324 91.3778 214.836 91.6184 215.282 92.0087C215.678 92.3561 215.935 92.7798 216.051 93.2796C216.167 93.7794 216.165 94.2963 216.043 94.8303C216.648 94.5549 217.254 94.441 217.861 94.4884C218.469 94.5358 219.013 94.7697 219.492 95.1901C219.997 95.6319 220.339 96.1605 220.518 96.7761C220.692 97.3874 220.695 98.0216 220.526 98.6787C220.358 99.3358 220.024 99.9484 219.527 100.517C219.029 101.085 218.466 101.496 217.837 101.75C217.208 102.003 216.579 102.084 215.95 101.992C215.316 101.896 214.747 101.627 214.242 101.185C213.762 100.765 213.459 100.256 213.332 99.6604C213.205 99.0644 213.236 98.4511 213.424 97.8204C212.911 98.0112 212.399 98.082 211.888 98.0328C211.382 97.9787 210.93 97.7779 210.534 97.4305C210.088 97.0402 209.782 96.5645 209.615 96.0034C209.449 95.4423 209.441 94.8639 209.591 94.268C209.74 93.663 210.037 93.1058 210.483 92.5964ZM211.571 93.5486C211.305 93.8523 211.123 94.1735 211.025 94.5121C210.927 94.8416 210.921 95.1649 211.007 95.4822C211.092 95.7995 211.272 96.0782 211.546 96.3184C211.796 96.5372 212.084 96.6681 212.41 96.7111C212.736 96.7541 213.062 96.7071 213.39 96.57C213.722 96.4281 214.017 96.2102 214.274 95.9163C214.531 95.6224 214.706 95.3041 214.799 94.9611C214.896 94.6133 214.902 94.2807 214.816 93.9634C214.73 93.6462 214.563 93.3781 214.313 93.1594C214.039 92.9192 213.739 92.7776 213.413 92.7346C213.087 92.6916 212.765 92.7429 212.447 92.8885C212.129 93.0249 211.836 93.245 211.571 93.5486ZM215.295 96.8106C214.982 97.1682 214.772 97.542 214.664 97.932C214.556 98.3221 214.553 98.7006 214.656 99.0675C214.758 99.4252 214.961 99.7371 215.265 100.003C215.568 100.269 215.906 100.431 216.279 100.489C216.657 100.543 217.034 100.492 217.411 100.338C217.784 100.18 218.127 99.9219 218.44 99.5643C218.753 99.2068 218.963 98.833 219.071 98.4429C219.174 98.0485 219.172 97.6703 219.065 97.3083C218.963 96.9414 218.759 96.625 218.456 96.3591C218.152 96.0931 217.814 95.9356 217.442 95.8864C217.069 95.8281 216.696 95.8782 216.324 96.0366C215.951 96.1951 215.608 96.4531 215.295 96.8106Z" fill="white" fill-opacity="0.65"/>
<path d="M216.988 82.8368C217.111 82.6523 217.24 82.5507 217.377 82.5322C217.513 82.5047 217.681 82.5574 217.882 82.6904L221.937 85.375C221.644 84.6736 221.512 84.0005 221.54 83.3558C221.567 82.702 221.758 82.1064 222.114 81.569C222.441 81.075 222.834 80.718 223.292 80.4981C223.744 80.2745 224.236 80.198 224.767 80.2685C225.298 80.339 225.832 80.5522 226.37 80.908L230.311 83.5171L230.753 82.8494C230.875 82.6648 231.005 82.5633 231.142 82.5448C231.277 82.5173 231.446 82.57 231.646 82.703C231.847 82.8359 231.964 82.9719 231.997 83.1108C232.028 83.2407 231.983 83.398 231.86 83.5825L230.114 86.2208C229.992 86.4054 229.863 86.5115 229.728 86.539C229.59 86.5575 229.421 86.5002 229.221 86.3673C229.02 86.2343 228.904 86.1029 228.873 85.9729C228.84 85.834 228.884 85.6723 229.006 85.4877L229.502 84.7385L225.683 82.2103C225.2 81.8904 224.744 81.7483 224.314 81.784C223.885 81.8197 223.526 82.0547 223.238 82.489C222.933 82.9504 222.78 83.47 222.78 84.0479C222.784 84.6202 222.94 85.1804 223.249 85.7283C223.558 86.2763 224 86.7407 224.575 87.1216L226.904 88.6634L227.4 87.9143C227.522 87.7297 227.652 87.6282 227.789 87.6097C227.924 87.5821 228.092 87.6349 228.293 87.7678C228.494 87.9008 228.611 88.0368 228.644 88.1757C228.675 88.3056 228.63 88.4629 228.507 88.6474L226.761 91.2857C226.639 91.4703 226.51 91.5763 226.374 91.6039C226.237 91.6224 226.068 91.5651 225.867 91.4321C225.667 91.2992 225.551 91.1677 225.519 91.0378C225.487 90.8989 225.531 90.7371 225.653 90.5526L226.095 89.8849L217.627 84.2784L217.131 85.0276C217.009 85.2121 216.88 85.3182 216.745 85.3457C216.607 85.3642 216.438 85.307 216.238 85.174C216.037 85.041 215.921 84.9096 215.89 84.7797C215.857 84.6407 215.901 84.479 216.023 84.2944L216.988 82.8368Z" fill="white" fill-opacity="0.65"/>
<path d="M227.209 72.9801C227.626 72.1916 228.181 71.5752 228.872 71.1308C229.564 70.6864 230.323 70.4548 231.151 70.4358C231.976 70.408 232.788 70.6056 233.588 71.0286C234.388 71.4517 235.012 72.0134 235.459 72.7138C235.903 73.4054 236.136 74.1621 236.158 74.9839C236.18 75.8057 235.983 76.6108 235.566 77.3992C235.149 78.1877 234.595 78.8041 233.903 79.2485C233.211 79.6929 232.453 79.929 231.628 79.9568C230.801 79.9758 229.987 79.7737 229.187 79.3507C228.387 78.9276 227.765 78.3703 227.321 77.6787C226.874 76.9783 226.639 76.2172 226.617 75.3954C226.595 74.5737 226.792 73.7685 227.209 72.9801ZM228.487 73.6557C228.192 74.214 228.055 74.7715 228.078 75.3283C228.097 75.8762 228.268 76.3825 228.589 76.847C228.905 77.3086 229.344 77.6884 229.908 77.9867C230.472 78.285 231.037 78.4362 231.602 78.4403C232.161 78.4414 232.675 78.2973 233.145 78.0081C233.612 77.71 233.993 77.2818 234.288 76.7236C234.583 76.1653 234.721 75.6122 234.702 75.0643C234.679 74.5075 234.511 73.9984 234.195 73.5369C233.873 73.0723 233.431 72.6909 232.867 72.3926C232.303 72.0944 231.741 71.9447 231.182 71.9436C230.617 71.9394 230.101 72.0864 229.634 72.3845C229.165 72.6737 228.782 73.0975 228.487 73.6557Z" fill="white" fill-opacity="0.65"/>
<path d="M233.301 60.1983C233.384 59.9934 233.492 59.8684 233.622 59.8233C233.75 59.7698 233.925 59.7886 234.148 59.8796L240.658 62.5364L240.961 61.795C241.044 61.59 241.151 61.4651 241.282 61.42C241.41 61.3665 241.585 61.3853 241.808 61.4763C242.031 61.5673 242.172 61.6777 242.232 61.8075C242.288 61.9288 242.274 62.0919 242.19 62.2968L241.603 63.7344C241.52 63.9394 241.414 64.0686 241.287 64.1221C241.162 64.1696 240.988 64.1479 240.765 64.0568L239.671 63.6104C240.124 64.2591 240.403 64.9181 240.51 65.5874C240.619 66.2507 240.548 66.8898 240.297 67.5046C240.073 68.0531 239.761 68.4814 239.361 68.7893C238.955 69.0947 238.485 69.265 237.95 69.2999C237.416 69.3349 236.85 69.2306 236.253 68.987L231.877 67.2011L231.575 67.9425C231.491 68.1474 231.386 68.2767 231.258 68.3302C231.127 68.3752 230.95 68.3522 230.727 68.2612C230.504 68.1702 230.365 68.064 230.309 67.9427C230.249 67.813 230.261 67.6456 230.345 67.4407L230.969 65.9126C231.052 65.7077 231.159 65.5827 231.29 65.5377C231.418 65.4841 231.593 65.5029 231.816 65.5939L236.671 67.5755C237.208 67.7944 237.683 67.8443 238.097 67.725C238.512 67.6058 238.817 67.3051 239.014 66.8229C239.223 66.3105 239.27 65.7741 239.154 65.2135C239.041 64.6469 238.779 64.1252 238.369 63.6484C237.959 63.1716 237.434 62.8029 236.795 62.5421L234.209 61.4868L233.685 62.7707C233.602 62.9756 233.496 63.1049 233.369 63.1584C233.238 63.2034 233.061 63.1804 232.838 63.0894C232.615 62.9984 232.475 62.8922 232.419 62.7709C232.36 62.6411 232.372 62.4738 232.456 62.2688L233.301 60.1983Z" fill="white" fill-opacity="0.65"/>
<path d="M236.414 49.9822C236.559 49.4957 236.821 49.0779 237.197 48.7286C237.422 48.5241 237.652 48.4573 237.889 48.5284C238.002 48.562 238.124 48.6293 238.257 48.7303C238.573 48.9679 238.697 49.202 238.628 49.4328C238.6 49.5263 238.548 49.6061 238.474 49.6722C238.214 49.9273 238.032 50.2295 237.927 50.5787C237.759 51.14 237.786 51.7632 238.009 52.4485C238.225 53.1319 238.603 53.7548 239.141 54.3172C239.681 54.8734 240.316 55.2608 241.045 55.4796L242.86 56.0237L243.805 52.8714C243.869 52.6593 243.964 52.5246 244.09 52.4672C244.211 52.4017 244.387 52.4036 244.618 52.4728C244.849 52.5419 245 52.6383 245.072 52.7617C245.139 52.8771 245.141 53.0408 245.078 53.2528L243.271 59.2769C243.208 59.4889 243.115 59.6277 242.994 59.6932C242.868 59.7506 242.689 59.7447 242.459 59.6755C242.228 59.6063 242.079 59.514 242.011 59.3987C241.94 59.2752 241.936 59.1075 241.999 58.8955L242.439 57.4268L236.341 55.5982L235.984 56.7862C235.921 56.9982 235.828 57.137 235.707 57.2024C235.581 57.2598 235.402 57.2539 235.172 57.1848C234.941 57.1156 234.792 57.0233 234.724 56.908C234.653 56.7845 234.649 56.6167 234.712 56.4047L235.284 54.4965C235.348 54.2844 235.443 54.1497 235.569 54.0923C235.69 54.0268 235.866 54.0287 236.097 54.0979L237.987 54.6644C237.528 54.2005 237.156 53.6949 236.871 53.1474C236.587 52.5999 236.405 52.0525 236.324 51.505C236.244 50.9575 236.273 50.4499 236.414 49.9822Z" fill="white" fill-opacity="0.65"/>
<path d="M238.822 39.0783C238.872 38.8162 238.956 38.64 239.073 38.5498C239.189 38.4596 239.36 38.4361 239.583 38.4792L241.405 38.8302C241.629 38.8733 241.778 38.9584 241.853 39.0855C241.928 39.2127 241.941 39.4073 241.89 39.6694C241.848 39.8868 241.736 40.0242 241.552 40.0817C240.975 40.2556 240.53 40.5843 240.218 41.0679C239.9 41.5502 239.663 42.1942 239.508 42.9997C239.389 43.6198 239.407 44.1272 239.563 44.5219C239.714 44.909 239.987 45.1407 240.384 45.2171C240.588 45.2565 240.767 45.2246 240.919 45.1213C241.073 45.0117 241.216 44.8371 241.349 44.5974C241.46 44.3999 241.561 44.1675 241.652 43.9C241.745 43.6261 241.856 43.2729 241.985 42.8404C242.175 42.2338 242.338 41.7481 242.475 41.3833C242.606 41.0108 242.765 40.6668 242.952 40.3514C243.236 39.8757 243.581 39.5311 243.987 39.3175C244.394 39.0976 244.885 39.043 245.46 39.1539C246.036 39.2647 246.512 39.509 246.89 39.8868C247.263 40.257 247.514 40.7462 247.642 41.3544C247.771 41.9561 247.761 42.6469 247.611 43.4269C247.478 44.1173 247.265 44.7061 246.972 45.1934C246.679 45.6807 246.3 46.0817 245.835 46.3966L246.372 46.5C246.596 46.5431 246.745 46.6283 246.82 46.7554C246.895 46.8826 246.908 47.0772 246.857 47.3393C246.807 47.6014 246.723 47.7776 246.606 47.8678C246.489 47.958 246.319 47.9815 246.095 47.9384L243.794 47.4951C243.57 47.452 243.421 47.3668 243.346 47.2397C243.271 47.1125 243.259 46.9179 243.309 46.6558C243.335 46.5215 243.387 46.4222 243.466 46.3578C243.538 46.2922 243.65 46.2441 243.802 46.2137C244.46 46.1018 244.981 45.8044 245.366 45.3216C245.751 44.8388 246.029 44.1499 246.202 43.2549C246.345 42.5133 246.32 41.9185 246.128 41.4704C245.936 41.0223 245.616 40.7552 245.168 40.669C244.951 40.6271 244.759 40.6629 244.591 40.7765C244.423 40.89 244.269 41.0692 244.129 41.3141C244.016 41.5243 243.908 41.7721 243.807 42.0576C243.7 42.3354 243.582 42.6938 243.451 43.1326C243.271 43.7213 243.107 44.2102 242.959 44.5994C242.811 44.9886 242.638 45.3397 242.438 45.6526C242.163 46.0836 241.837 46.3987 241.46 46.598C241.079 46.7897 240.623 46.8344 240.092 46.7322C239.536 46.625 239.087 46.3894 238.746 46.0254C238.4 45.6537 238.174 45.1925 238.068 44.6417C237.963 44.0844 237.974 43.4798 238.099 42.8277C238.219 42.2076 238.42 41.6597 238.704 41.184C238.989 40.7019 239.334 40.3074 239.738 40.0007L239.306 39.9176C239.083 39.8745 238.933 39.7893 238.858 39.6622C238.783 39.535 238.771 39.3404 238.822 39.0783Z" fill="white" fill-opacity="0.65"/>
</svg>
